<svg xmlns="http://www.w3.org/2000/svg" width="14" height="17.293" viewBox="0 0 3.704 4.575"><path d="M2.324 1.87a.473.473 0 1 1-.946 0 .473.473 0 0 1 .946 0zm.258 0a.732.732 0 1 0-1.463.002.732.732 0 0 0 1.463-.002" fill="#91979c"/><path d="M2.92 3.05l-.071-.047-.048.07c-.244.35-.564.692-.95 1.018a6.284 6.284 0 0 1-.424-.392l-.058-.058-.062.055-.184.167-.067.06.063.065c.181.184.383.366.6.54a.212.212 0 0 0 .266 0c.478-.384.87-.793 1.165-1.217l.05-.072-.073-.05-.208-.138" fill="#80c22a"/><path d="M1.851 0A1.853 1.853 0 0 0 .17 2.625a4.1 4.1 0 0 0 .588.956l.057.072.068-.062.185-.167.06-.054-.05-.064a3.643 3.643 0 0 1-.52-.849L.55 2.442.549 2.44a1.47 1.47 0 0 1-.09-.264v-.003l-.003-.01a.263.263 0 0 1-.006-.029V2.13l-.002-.008a1.43 1.43 0 0 1 1.403-1.7 1.43 1.43 0 0 1 1.403 1.7l-.001.009-.008.035-.002.009v.002c-.02.09-.05.179-.09.263v.001l-.007.016c-.023.054-.049.11-.077.166l-.034.068.063.043.21.14.08.054.045-.086a3.41 3.41 0 0 0 .102-.217 1.806 1.806 0 0 0 .17-.774A1.857 1.857 0 0 0 1.85 0" fill="#91979c"/></svg>